<svg xmlns="http://www.w3.org/2000/svg" xmlns:xlink="http://www.w3.org/1999/xlink" width="1080" zoomAndPan="magnify" viewBox="0 0 810 540.000001" height="720" preserveAspectRatio="xMidYMid meet" version="1.0"><defs><clipPath id="19895b68af"><path d="M 0.75 0 L 809.25 0 L 809.25 539 L 0.75 539 Z M 0.75 0 " clip-rule="nonzero"/></clipPath><clipPath id="ebfcc05b27"><path d="M 0.75 0 L 809.25 0 L 809.25 104.695312 L 0.75 104.695312 Z M 0.75 0 " clip-rule="nonzero"/></clipPath></defs><g clip-path="url(#19895b68af)"><path fill="#ffffff" d="M 0.75 0 L 809.25 0 L 809.25 546.488281 L 0.75 546.488281 Z M 0.75 0 " fill-opacity="1" fill-rule="nonzero"/><path fill="#ffffff" d="M 0.75 0 L 809.25 0 L 809.25 539 L 0.75 539 Z M 0.75 0 " fill-opacity="1" fill-rule="nonzero"/><path fill="#2d638e" d="M 0.75 0 L 809.25 0 L 809.25 539 L 0.75 539 Z M 0.75 0 " fill-opacity="1" fill-rule="nonzero"/></g><g clip-path="url(#ebfcc05b27)"><path fill="#accae2" d="M 0.75 0 L 809.136719 0 L 809.136719 104.503906 L 0.75 104.503906 Z M 0.75 0 " fill-opacity="1" fill-rule="nonzero"/></g></svg>