<svg xmlns="http://www.w3.org/2000/svg" width="382.958" height="135.158" viewBox="0 0 382.958 135.158">
  <g id="Grupo_389" data-name="Grupo 389" transform="translate(4697 -9581)">
    <g id="Grupo_387" data-name="Grupo 387" transform="translate(-4957 563.292)">
      <text id="Fabulas_invenire_par" data-name="Fabulas invenire par" transform="translate(260 9115.644)" fill="#fff" font-size="68" font-family="Goldplay-SemiBold, Goldplay" font-weight="600"><tspan x="0" y="0">whatsapp</tspan></text>
      <text id="Fabulas_invenire_par-2" data-name="Fabulas invenire par" transform="translate(260 9056)" fill="#fff" font-size="18" font-family="Goldplay-SemiBold, Goldplay" font-weight="600"><tspan x="0" y="0">nos envie uma mensagem no</tspan></text>
      <g id="Grupo_301" data-name="Grupo 301" transform="translate(534.893 9043.723)">
        <path id="Caminho_5202" data-name="Caminho 5202" d="M83.78,404.012a1.059,1.059,0,0,1,2.066.464c-6.211,27.637-16.6,47.5-30.828,60.2C40.733,477.413,22.618,482.912,1,481.78a1.059,1.059,0,0,1,.107-2.116c21.047,1.1,38.654-4.227,52.5-16.578,13.9-12.4,24.064-31.89,30.173-59.074Z" transform="translate(0.008 -372.782)" fill="#fff"/>
        <path id="Caminho_5203" data-name="Caminho 5203" d="M698.255,13.471a31.077,31.077,0,0,0,3.022,11.973c3.751-2.36,6.831-6.684,8.664-14.664C710.975,4.256,707.7.156,704.4.012c-5.61-.248-6.255,9.255-6.142,13.46ZM686.217,90.706A34.36,34.36,0,0,1,672.969,87.4a34.379,34.379,0,0,1-6.622-11.942c-1.311-4.462-3.315-14.8,2.752-16.126,3.569-.78,8.234,2.672,8.977,9.94.24,7.208-1.023,12.16-3.234,15.689,2.836-3.05,7.293-5.552,14.317-7.185,7.211-1.163,11.753,2.449,11.924,6.1.291,6.2-10.215,6.944-14.865,6.831Zm3.922-64.673a28.326,28.326,0,0,0,9.274,6.377A31.989,31.989,0,0,0,712,30.663c4.053-1.518,12.867-5.807,10.461-11.061-1.415-3.091-6.591-4.632-12.414-1.124-6.123,4.288-9.123,8.4-10.28,12.41.618-3.6-.152-8-3.249-13.73-3.218-5.089-7.929-5.922-10.276-4.035-3.989,3.206,1.288,10.1,3.9,12.91Zm-4.162,17.138a28.332,28.332,0,0,0,8.137,7.776,34.382,34.382,0,0,0,13.632-.782c4.472-1.274,14.283-5.105,12.162-10.941-1.248-3.433-6.658-5.533-13.2-2.278-6.371,3.735-9.9,7.539-11.661,11.387.8-3.282.55-7.422-1.358-12.9-2.366-5.537-6.882-7.111-9.5-5.623-4.449,2.528-.34,10.176,1.786,13.366ZM700.649,68.56a34.377,34.377,0,0,1-13.609-1.117,28.319,28.319,0,0,1-6.979-8.83c-1.663-3.454-4.671-11.6.086-13.485,2.8-1.11,7.054,1.075,8.628,6.887,1.13,5.693.807,9.83-.446,12.968,2.278-3.566,6.3-6.844,13.129-9.659,6.928-2.315,11.995.514,12.754,4.088,1.291,6.073-8.956,8.506-13.562,9.148Z" transform="translate(-614.805 -0.007)" fill="#fff" fill-rule="evenodd"/>
      </g>
      <g id="Grupo_336" data-name="Grupo 336" transform="translate(523.298 9017.707)">
        <path id="Caminho_431" data-name="Caminho 431" d="M271.77,1285.738a27.042,27.042,0,0,1,9.695,36.942,27.328,27.328,0,0,1-9.695,9.695,27.078,27.078,0,0,1-26.676.317l-14.954,4.752L235.019,1323a27.081,27.081,0,0,1-.19-27.564,26.872,26.872,0,0,1,36.941-9.694Zm.063,30.6a2.291,2.291,0,0,0-.063-1.046,1.228,1.228,0,0,0-.444-.412q.19.128-.824-.444-4.056-1.963-4.5-2.091a1.316,1.316,0,0,0-1.647.444q-1.395,1.9-1.774,2.409a1.547,1.547,0,0,1-.76.315,1.623,1.623,0,0,1-.887-.127q-1.331-.568-1.964-.887a21.066,21.066,0,0,1-3.358-2.344,19.6,19.6,0,0,1-3.675-4.626.983.983,0,0,1-.127-.824,2.082,2.082,0,0,1,.38-.57l1.014-1.077a4.841,4.841,0,0,0,.792-1.109,1.289,1.289,0,0,0-.158-1.172l-2.028-4.941a2.19,2.19,0,0,0-.6-.889,1.541,1.541,0,0,0-.855-.19l-.76-.063a2.954,2.954,0,0,0-2.281.825,9.9,9.9,0,0,0-1.457,1.774,7.739,7.739,0,0,0-.887,3.737,11.912,11.912,0,0,0,2.661,6.843q-.444-.634.7.95a21.984,21.984,0,0,0,1.521,1.964q1.141,1.333,2.344,2.534,1.521,1.4,3.041,2.536a19.083,19.083,0,0,0,3.738,2.028,26.147,26.147,0,0,0,5.449,1.773,6.893,6.893,0,0,0,2.471-.062,8.149,8.149,0,0,0,2.725-1.142,4.276,4.276,0,0,0,1.774-2.089A7.032,7.032,0,0,0,271.833,1316.342Z" transform="translate(-230.14 -1282.001)" fill="#fff"/>
      </g>
    </g>
  </g>
</svg>
